<svg width="42" height="43" viewBox="0 0 42 43" fill="none" xmlns="http://www.w3.org/2000/svg">
<g filter="url(#filter0_d_67_4618)">
<circle cx="21.25" cy="21" r="16.75" fill="#F9DBCC"/>
</g>
<ellipse cx="16.3693" cy="18.1029" rx="1.71374" ry="2.11676" transform="rotate(-13.5948 16.3693 18.1029)" fill="#475569"/>
<path d="M26.6525 15.5566C26.917 15.3348 26.9517 14.9406 26.7299 14.6761C26.5081 14.4116 26.1139 14.3769 25.8494 14.5987L22.5565 17.3598C22.4019 17.4894 22.3258 17.6779 22.3335 17.8649C22.3353 17.9362 22.3494 18.0083 22.3771 18.0784C22.5038 18.3995 22.8667 18.5571 23.1878 18.4305C24.5718 17.8846 26.1235 17.6687 27.529 17.9031C27.8695 17.9598 28.1915 17.7298 28.2483 17.3894C28.305 17.0489 28.0751 16.7269 27.7346 16.6701C26.9691 16.5425 26.1782 16.5285 25.3953 16.6107L26.6525 15.5566Z" fill="#475569"/>
<path d="M31.0761 20.1837C31.4226 23.9525 29.3024 28.6606 24.2137 30.2636C19.0333 31.2734 13.702 28.4112 12.016 24.6458C11.3809 22.5087 14.071 22.4942 20.953 21.3804C28.4432 20.1681 31.0203 19.5769 31.0761 20.1837Z" fill="#B05151"/>
<path d="M27.9842 28.1116C26.9819 29.0332 25.7296 29.7861 24.2139 30.2636C21.917 30.7114 19.5903 30.3978 17.5649 29.5819C18.2349 27.2203 20.4071 25.4905 22.9833 25.4905C24.9864 25.4905 26.8858 26.5363 27.9842 28.1116Z" fill="#D76069"/>
<path d="M14.6575 23.7852C14.6672 23.8239 14.6975 23.8529 14.7369 23.8589C17.6814 24.3124 23.8409 23.5695 27.8563 21.728C27.8917 21.7118 27.9138 21.6766 27.9138 21.6377V20.2327C27.1139 20.3576 26.1423 20.5202 24.9772 20.7153C23.8303 20.9072 22.4958 21.1306 20.9528 21.3803C19.9212 21.5473 18.9838 21.6895 18.1377 21.8179C16.5524 22.0585 15.2875 22.2505 14.3237 22.4652L14.6575 23.7852Z" fill="white"/>
<defs>
<filter id="filter0_d_67_4618" x="0.5" y="0.58" width="41.5" height="41.5" filterUnits="userSpaceOnUse" color-interpolation-filters="sRGB">
<feFlood flood-opacity="0" result="BackgroundImageFix"/>
<feColorMatrix in="SourceAlpha" type="matrix" values="0 0 0 0 0 0 0 0 0 0 0 0 0 0 0 0 0 0 127 0" result="hardAlpha"/>
<feOffset dy="0.33"/>
<feGaussianBlur stdDeviation="2"/>
<feColorMatrix type="matrix" values="0 0 0 0 0 0 0 0 0 0 0 0 0 0 0 0 0 0 0.2 0"/>
<feBlend mode="normal" in2="BackgroundImageFix" result="effect1_dropShadow_67_4618"/>
<feBlend mode="normal" in="SourceGraphic" in2="effect1_dropShadow_67_4618" result="shape"/>
</filter>
</defs>
</svg>
