<svg width="33" height="33" viewBox="0 0 33 33" fill="none" xmlns="http://www.w3.org/2000/svg">
<rect x="0.5" y="0.5" width="32" height="32" rx="4" fill="white"/>
<mask id="mask0_67_4629" style="mask-type:alpha" maskUnits="userSpaceOnUse" x="2" y="2" width="29" height="29">
<rect x="2.5" y="2.5" width="28" height="28" fill="#9DC8EB"/>
</mask>
<g mask="url(#mask0_67_4629)">
<rect x="2.5" y="2.5" width="28" height="28" fill="#9DC8EB"/>
<circle cx="19.8398" cy="8.94573" r="3.78606" fill="#FEF8AE"/>
<path d="M25.0808 19.3293C24.1232 19.3293 23.2217 19.7545 22.4011 20.3769C21.579 21.0003 20.8016 21.8491 20.0822 22.7633C19.3611 23.6796 18.6845 24.6799 18.0693 25.6164C17.907 25.8634 17.7496 26.1051 17.5968 26.3396C17.1655 27.0018 16.7716 27.6064 16.4124 28.1107L16.3184 28.2428V36.4875H44.6813L43.6223 35.5996C41.0265 33.4231 38.4363 30.6286 35.9624 27.9597C35.1394 27.0718 34.3293 26.1978 33.5361 25.365C31.9582 23.7084 30.4452 22.2139 29.0486 21.132C27.6698 20.0637 26.3205 19.3294 25.0808 19.3293Z" fill="#D6B488"/>
<path d="M25.1162 19.3306C24.1464 19.2575 23.2335 19.6568 22.4083 20.2706C21.5825 20.8849 20.8028 21.7446 20.0831 22.6743C19.3612 23.6066 18.6836 24.6304 18.0681 25.5855C17.9298 25.8002 17.795 26.0108 17.6636 26.2159C17.2054 26.9317 16.7891 27.5817 16.4124 28.1107L16.3184 28.2428V36.4875H40.7132L39.8256 35.6238C36.9129 32.7898 34.47 29.4206 32.3327 26.4729C32.0309 26.0566 31.7351 25.6486 31.445 25.2519C30.2805 23.6592 29.1981 22.234 28.1834 21.1899C27.1858 20.1635 26.1655 19.4098 25.1162 19.3306Z" fill="#C89577"/>
<path d="M10.3147 16.9136C9.32742 16.9136 8.39793 17.3388 7.55189 17.9611C6.70439 18.5845 5.90284 19.4333 5.16119 20.3475C4.41779 21.2639 3.72021 22.2641 3.08594 23.2006C2.91863 23.4477 2.75631 23.6893 2.59885 23.9238C2.15413 24.586 1.74805 25.1906 1.37774 25.695L1.28076 25.827V34.0717H30.5223L29.4305 33.1838C26.7543 31.0073 24.0838 28.2128 21.5333 25.5439C20.6848 24.656 19.8496 23.782 19.0319 22.9493C17.4051 21.2927 15.8452 19.7982 14.4054 18.7162C12.9838 17.6479 11.5927 16.9136 10.3147 16.9136Z" fill="#D6B488"/>
<path d="M10.3511 16.9149C9.35134 16.8417 8.41009 17.241 7.55937 17.8548C6.70802 18.4691 5.90417 19.3289 5.16208 20.2585C4.41787 21.1908 3.71927 22.2147 3.08473 23.1698C2.9421 23.3844 2.80312 23.595 2.6677 23.8001C2.19523 24.5159 1.76613 25.166 1.37774 25.6949L1.28076 25.827V34.0717H26.4313L25.5162 33.2081C22.5133 30.3741 19.9947 27.0049 17.7912 24.0571C17.48 23.6409 17.175 23.2329 16.876 22.8361C15.6754 21.2434 14.5595 19.8182 13.5133 18.7741C12.4849 17.7477 11.4329 16.994 10.3511 16.9149Z" fill="#C89577"/>
</g>
</svg>
