<svg width="37" height="34" viewBox="0 0 37 34" fill="none" xmlns="http://www.w3.org/2000/svg">
<path d="M1.83325 31C1.83325 28.6801 2.43853 26.4004 3.5893 24.3861C4.74007 22.3717 6.39649 20.6925 8.39491 19.5143C10.3933 18.3361 12.6646 17.6996 14.9842 17.6679C17.3039 17.6362 19.5917 18.2102 21.6216 19.3334M26.8333 24.3333L35.1666 32.6667M35.1666 24.3333L26.8333 32.6667M23.4999 9.33333C23.4999 13.9357 19.769 17.6667 15.1666 17.6667C10.5642 17.6667 6.83325 13.9357 6.83325 9.33333C6.83325 4.73096 10.5642 1 15.1666 1C19.769 1 23.4999 4.73096 23.4999 9.33333Z" stroke="#0F172A" stroke-width="2" stroke-linecap="round" stroke-linejoin="round"/>
</svg>
